<svg height="40px" width="40px" version="1.1" id="_x32_" xmlns="http://www.w3.org/2000/svg" xmlns:xlink="http://www.w3.org/1999/xlink" viewBox="0 0 25.6 25.6" xml:space="preserve">
  <style type="text/css">
    .st0{fill:#ffffff;}
  </style>
  <g>
    <path class="st0" d="M2.417 24.54c0.001 -0.984 0.238 -1.791 0.615 -2.477 0.564 -1.027 1.462 -1.785 2.374 -2.334 0.911 -0.55 1.823 -0.885 2.391 -1.085 0.448 -0.158 0.968 -0.388 1.411 -0.695 0.221 -0.155 0.425 -0.329 0.589 -0.544 0.162 -0.212 0.289 -0.481 0.289 -0.791v-1.838l-0.003 -0.025c-0.027 -0.245 -0.124 -0.438 -0.222 -0.605 -0.151 -0.251 -0.32 -0.47 -0.475 -0.753 -0.154 -0.282 -0.298 -0.623 -0.383 -1.102l-0.05 -0.28 -0.268 -0.096c-0.123 -0.044 -0.21 -0.087 -0.284 -0.138 -0.109 -0.077 -0.209 -0.181 -0.337 -0.418 -0.126 -0.236 -0.264 -0.6 -0.416 -1.133 -0.065 -0.228 -0.087 -0.4 -0.087 -0.522 0.004 -0.21 0.05 -0.259 0.076 -0.291 0.027 -0.031 0.076 -0.054 0.129 -0.066l0.426 -0.095 -0.046 -0.434c-0.1 -0.952 -0.24 -2.327 -0.24 -3.687 0 -0.919 0.065 -1.831 0.239 -2.584 0.144 -0.636 0.371 -1.141 0.652 -1.463 0.453 0.103 0.872 0.141 1.263 0.141 0.691 -0.002 1.294 -0.094 1.958 -0.093h0.016l0.017 -0.001c0.249 -0.015 0.472 -0.023 0.672 -0.023 0.638 0 1.035 0.073 1.358 0.198 0.322 0.124 0.598 0.314 0.972 0.604l0.096 0.075 0.12 0.021c0.438 0.078 0.762 0.234 1.024 0.446 0.39 0.316 0.653 0.783 0.818 1.362 0.165 0.577 0.225 1.253 0.225 1.924 0 0.566 -0.041 1.128 -0.089 1.631 -0.048 0.503 -0.101 0.942 -0.125 1.285l0 0a4.7 4.7 0 0 1 -0.016 0.172l-0.044 0.418 0.406 0.107c0.052 0.014 0.093 0.036 0.119 0.067 0.025 0.032 0.069 0.087 0.072 0.287 0 0.122 -0.022 0.294 -0.087 0.521 -0.202 0.712 -0.383 1.119 -0.536 1.331 -0.077 0.107 -0.143 0.169 -0.217 0.221 -0.074 0.051 -0.162 0.094 -0.284 0.138l-0.268 0.096 -0.05 0.28c-0.058 0.33 -0.129 0.568 -0.203 0.755 -0.112 0.279 -0.232 0.452 -0.386 0.681 -0.153 0.225 -0.338 0.506 -0.482 0.908l-0.029 0.08v1.899c-0.001 0.286 0.106 0.545 0.252 0.75 0.222 0.31 0.526 0.537 0.857 0.735 0.332 0.196 0.695 0.358 1.044 0.493l0.355 -0.913c-0.421 -0.162 -0.851 -0.368 -1.141 -0.581 -0.145 -0.105 -0.254 -0.212 -0.313 -0.297 -0.061 -0.088 -0.073 -0.142 -0.074 -0.186v-1.715c0.063 -0.16 0.129 -0.29 0.204 -0.411 0.126 -0.208 0.294 -0.417 0.463 -0.733 0.14 -0.263 0.265 -0.594 0.362 -1.027a1.85 1.85 0 0 0 0.253 -0.147c0.253 -0.175 0.468 -0.43 0.643 -0.763 0.177 -0.335 0.33 -0.755 0.493 -1.324 0.084 -0.296 0.124 -0.555 0.124 -0.79 0.003 -0.379 -0.116 -0.707 -0.312 -0.929 -0.068 -0.078 -0.142 -0.138 -0.217 -0.189 0.025 -0.292 0.069 -0.679 0.112 -1.125 0.049 -0.518 0.093 -1.11 0.093 -1.723 -0.002 -0.97 -0.105 -1.995 -0.516 -2.879 -0.206 -0.441 -0.494 -0.847 -0.888 -1.167 -0.363 -0.296 -0.817 -0.508 -1.342 -0.62 -0.357 -0.274 -0.703 -0.513 -1.133 -0.68 -0.465 -0.18 -1.002 -0.264 -1.711 -0.263 -0.224 0 -0.466 0.008 -0.731 0.024C11.251 0.155 10.645 0.245 10.06 0.243c-0.408 0 -0.811 -0.039 -1.278 -0.172L8.532 0l-0.199 0.167c-0.613 0.521 -0.942 1.296 -1.143 2.159 -0.199 0.866 -0.263 1.839 -0.264 2.804 0 1.259 0.113 2.503 0.208 3.437 -0.073 0.047 -0.145 0.102 -0.214 0.175 -0.211 0.221 -0.344 0.564 -0.34 0.96 0 0.236 0.04 0.496 0.125 0.791 0.218 0.758 0.415 1.254 0.681 1.631 0.133 0.187 0.287 0.34 0.455 0.456a1.87 1.87 0 0 0 0.251 0.146c0.152 0.648 0.407 1.119 0.626 1.459 0.123 0.193 0.232 0.346 0.3 0.46 0.065 0.107 0.084 0.168 0.088 0.196v1.772c0 0.036 -0.014 0.098 -0.09 0.199 -0.11 0.149 -0.35 0.339 -0.637 0.5 -0.287 0.163 -0.618 0.305 -0.908 0.407 -0.781 0.276 -2.262 0.816 -3.573 1.866 -0.656 0.526 -1.271 1.183 -1.724 2.005 -0.453 0.821 -0.737 1.805 -0.736 2.949 0 0.199 0.008 0.403 0.026 0.611l0.038 0.449h16.034v-0.98H2.42c0 -0.026 -0.003 -0.054 -0.003 -0.08"/>
    <path class="st0" d="M20.635 18.054c-1.948 0 -3.528 1.579 -3.528 3.528S18.687 25.11 20.635 25.11s3.528 -1.579 3.528 -3.528 -1.579 -3.528 -3.528 -3.528m1.96 4.018h-1.47v1.47h-0.98v-1.47H18.675v-0.98h1.47v-1.47h0.98v1.47h1.47z"/>
  </g>
</svg>
