<svg fill="#ffffff" width="40px" height="40px" viewBox="0 0 1.2 1.2" xmlns="http://www.w3.org/2000/svg"><path d="M1.025 0.23A0.29 0.29 0 0 0 0.8 0.125a0.288 0.288 0 0 0 -0.2 0.073A0.288 0.288 0 0 0 0.4 0.125a0.29 0.29 0 0 0 -0.225 0.105c-0.048 0.058 -0.098 0.162 -0.064 0.333 0.053 0.272 0.448 0.496 0.465 0.505a0.05 0.05 0 0 0 0.049 0c0.017 -0.009 0.412 -0.233 0.465 -0.505 0.033 -0.171 -0.017 -0.275 -0.064 -0.333m-0.034 0.314C0.954 0.737 0.683 0.916 0.6 0.967c-0.117 -0.07 -0.357 -0.248 -0.391 -0.423 -0.026 -0.132 0.009 -0.209 0.043 -0.25A0.191 0.191 0 0 1 0.4 0.225a0.175 0.175 0 0 1 0.156 0.073 0.05 0.05 0 0 0 0.088 0.001A0.175 0.175 0 0 1 0.8 0.225a0.191 0.191 0 0 1 0.148 0.069c0.034 0.041 0.069 0.118 0.043 0.25"/></svg>