<svg width="40px" height="40px" viewBox="0 0 1.2 1.2" fill="none" xmlns="http://www.w3.org/2000/svg"><path d="M0.9 0.45V0.36c0 -0.056 0 -0.084 -0.011 -0.105a0.1 0.1 0 0 0 -0.044 -0.044C0.824 0.2 0.796 0.2 0.74 0.2H0.36c-0.056 0 -0.084 0 -0.105 0.011a0.1 0.1 0 0 0 -0.044 0.044C0.2 0.276 0.2 0.304 0.2 0.36V0.9l0.2 -0.1m0.6 0.2 -0.11 -0.073c-0.015 -0.01 -0.023 -0.015 -0.031 -0.018a0.1 0.1 0 0 0 -0.023 -0.007C0.829 0.9 0.82 0.9 0.802 0.9H0.56c-0.056 0 -0.084 0 -0.105 -0.011a0.1 0.1 0 0 1 -0.044 -0.044C0.4 0.824 0.4 0.796 0.4 0.74v-0.13c0 -0.056 0 -0.084 0.011 -0.105a0.1 0.1 0 0 1 0.044 -0.044C0.476 0.45 0.504 0.45 0.56 0.45h0.28c0.056 0 0.084 0 0.105 0.011a0.1 0.1 0 0 1 0.044 0.044C1 0.526 1 0.554 1 0.61z" stroke="#fff" stroke-width="0.1" stroke-linecap="round" stroke-linejoin="round"/></svg>